<?xml version="1.0" standalone="no"?>
<!DOCTYPE svg PUBLIC "-//W3C//DTD SVG 20010904//EN"
 "http://www.w3.org/TR/2001/REC-SVG-20010904/DTD/svg10.dtd">
<svg version="1.0" xmlns="http://www.w3.org/2000/svg"
 width="512.000000pt" height="512.000000pt" viewBox="0 0 512.000000 512.000000"
 preserveAspectRatio="xMidYMid meet">
<metadata>
Created by potrace 1.11, written by Peter Selinger 2001-2013
</metadata>
<g transform="translate(0.000000,512.000000) scale(0.100000,-0.100000)"
fill="#000000" stroke="none">
<path d="M2507 5014 c-1 -1 -51 -4 -112 -8 -129 -7 -312 -36 -425 -66 -25 -7
-52 -14 -60 -15 -41 -10 -220 -72 -275 -96 -526 -228 -911 -566 -1202 -1054
-87 -146 -202 -421 -239 -570 -4 -16 -8 -34 -10 -40 -13 -42 -54 -260 -60
-313 -4 -37 -8 -80 -10 -97 -5 -39 -5 -351 0 -390 2 -16 6 -57 10 -90 12 -109
28 -188 61 -321 107 -418 330 -806 641 -1118 236 -236 465 -391 804 -543 156
-71 462 -151 635 -168 39 -4 84 -9 100 -11 48 -6 335 -6 400 1 593 57 1117
305 1534 725 378 381 623 875 691 1395 6 44 13 96 16 115 6 45 6 361 -1 420
-3 25 -8 65 -10 90 -5 42 -19 124 -30 180 -3 14 -7 36 -10 50 -31 170 -148
470 -262 675 -134 241 -373 520 -597 700 -368 294 -738 454 -1226 529 -58 9
-356 26 -363 20z m1046 -1142 c10 -11 22 -34 26 -53 4 -19 6 -484 6 -1034 -1
-923 -3 -1004 -19 -1052 -23 -69 -84 -136 -153 -168 -47 -23 -70 -27 -162 -29
-208 -4 -294 36 -367 174 -16 30 -19 58 -19 185 0 173 11 209 84 282 67 67
123 83 296 84 l145 0 0 425 c0 275 -4 424 -10 424 -5 0 -36 -9 -67 -20 -32
-10 -103 -32 -158 -49 -88 -26 -479 -147 -560 -173 -16 -5 -39 -11 -50 -14
-11 -2 -74 -21 -140 -42 l-120 -39 -1 -655 c-1 -754 2 -721 -89 -814 -71 -71
-124 -88 -285 -87 -146 0 -205 15 -268 69 -83 70 -109 150 -106 315 2 145 35
220 122 283 64 47 107 56 271 56 l141 0 0 740 c0 793 -1 783 49 809 18 10 142
49 476 151 167 51 210 64 630 193 116 36 219 67 230 69 29 6 76 -9 98 -30z"/>
</g>
</svg>
